<?xml version="1.0" encoding="UTF-8"?>
<svg width="22px" height="28px" viewBox="0 0 22 28" version="1.1" xmlns="http://www.w3.org/2000/svg" xmlns:xlink="http://www.w3.org/1999/xlink">
    <title>87F59236-736A-4E5E-8029-385293650524</title>
    <g id="Split" stroke="none" stroke-width="1" fill="none" fill-rule="evenodd">
        <g id="Landing-3" transform="translate(-710.000000, -2024.000000)" fill="#FEDC5A" fill-rule="nonzero">
            <g id="Features" transform="translate(221.400000, 807.300000)">
                <g id="List" transform="translate(45.900000, 945.000000)">
                    <g id="1-copy-5" transform="translate(342.000000, 253.800000)">
                        <g id="Icon" transform="translate(80.100000, 0.000000)">
                            <path d="M39.3,18 L23.7,18 C22.0439681,18.0019405 20.7019837,19.3147499 20.7,20.9347792 L20.7,44.4130125 C20.7,44.623567 20.8152639,44.817997 21.0020934,44.9225397 C21.1889228,45.0270823 21.4186801,45.0257195 21.6042,44.9189684 L31.5,39.2243229 L41.3958,44.9177945 C41.5811351,45.0244398 41.8106362,45.0259136 41.9973865,44.9216577 C42.1841368,44.8174018 42.2995818,44.6233571 42.3,44.4130125 L42.3,20.9347792 C42.2980163,19.3147499 40.9560319,18.0019405 39.3,18 Z" id="Path"></path>
                        </g>
                    </g>
                </g>
            </g>
        </g>
    </g>
</svg>