<?xml version="1.0" encoding="UTF-8"?>
<svg width="32px" height="16px" viewBox="0 0 32 16" version="1.1" xmlns="http://www.w3.org/2000/svg" xmlns:xlink="http://www.w3.org/1999/xlink">
    <title>B7AC1883-0549-413B-8FD3-76587A5EB4E5</title>
    <g id="Split" stroke="none" stroke-width="1" fill="none" fill-rule="evenodd">
        <g id="Landing-3" transform="translate(-1047.000000, -2030.000000)" fill="#5454D4" fill-rule="nonzero">
            <g id="Features" transform="translate(221.400000, 807.300000)">
                <g id="List" transform="translate(45.900000, 945.000000)">
                    <g id="1-copy-4" transform="translate(684.000000, 253.800000)">
                        <g id="Icon" transform="translate(80.100000, 0.000000)">
                            <g id="loop" transform="translate(16.200000, 24.300000)">
                                <path d="M24.6130435,2.46644006 C22.4364522,2.46644006 18.8083565,5.0904973 14.9680565,7.86902783 C11.5960696,10.3087779 7.77373043,13.0740489 5.98695652,13.0740489 C3.41988261,13.0740489 1.33043478,10.9916427 1.33043478,8.43322003 C1.33043478,5.87479737 3.41988261,3.79239116 5.98695652,3.79239116 C6.43664348,3.79239116 7.04531739,3.96277588 7.77506087,4.27503737 L6.10137391,7.32538788 C5.97631304,7.55212552 5.99626957,7.83057525 6.1506,8.0380866 C6.2769913,8.20913429 6.47655652,8.30592872 6.68476957,8.30592872 C6.72933913,8.30592872 6.77590435,8.30128789 6.82113913,8.29200624 L12.7748348,7.05157898 C12.9637565,7.01180045 13.1267348,6.89312782 13.2205304,6.72406906 C13.3143261,6.55501029 13.3296261,6.3541287 13.2624391,6.17379935 L11.1384,0.433757016 C11.0479304,0.189782013 10.823087,0.0207232475 10.562987,0.00215993199 C10.3075435,-0.0190552857 10.0554261,0.117517678 9.93103043,0.345581268 L8.41366957,3.11151527 C7.4511,2.68919985 6.63487826,2.46644006 5.98695652,2.46644006 C2.68548261,2.46644006 0,5.14287236 0,8.43322003 C0,11.7235677 2.68548261,14.4 5.98695652,14.4 C8.20545652,14.4 11.8701391,11.7487608 15.749687,8.94238525 C19.0857522,6.52849127 22.8681783,3.79239116 24.6130435,3.79239116 C27.1801174,3.79239116 29.2695652,5.87479737 29.2695652,8.43322003 C29.2695652,10.9916427 27.1801174,13.0740489 24.6130435,13.0740489 C23.5593391,13.0740489 21.6448435,12.1717392 19.2221217,10.5328636 C18.9187826,10.3260152 18.5050174,10.4068982 18.2981348,10.7092151 C18.0912522,11.0121949 18.1710783,11.4245657 18.4750826,11.6300881 C21.1918304,13.4678564 23.2573304,14.4 24.6130435,14.4 C27.9145174,14.4 30.6,11.7235677 30.6,8.43322003 C30.6,5.14287236 27.9145174,2.46644006 24.6130435,2.46644006 Z" id="Path"></path>
                            </g>
                        </g>
                    </g>
                </g>
            </g>
        </g>
    </g>
</svg>