<?xml version="1.0" encoding="UTF-8"?>
<svg width="26px" height="26px" viewBox="0 0 26 26" version="1.1" xmlns="http://www.w3.org/2000/svg" xmlns:xlink="http://www.w3.org/1999/xlink">
    <title>A7E7AC14-CA31-4DC3-8508-AFB44FD4D1CC</title>
    <g id="Split" stroke="none" stroke-width="1" fill="none" fill-rule="evenodd">
        <g id="Landing-3" transform="translate(-1050.000000, -1772.000000)" fill="#FEDC5A" fill-rule="nonzero">
            <g id="Features" transform="translate(221.400000, 807.300000)">
                <g id="List" transform="translate(45.900000, 945.000000)">
                    <g id="1-copy-3" transform="translate(684.000000, 0.000000)">
                        <g id="Icon" transform="translate(80.100000, 0.000000)">
                            <g id="spaceship" transform="translate(18.900000, 19.800000)">
                                <path d="M11.7,3.75866443 C8.55097967,3.10288226 5.19458864,4.4995239 2.81112483,7.58502922 C2.64853332,7.79534228 2.6661652,8.09601962 2.85218319,8.28519955 L5.32503989,10.8 C6.98285516,8.05632923 9.14772142,5.6651692 11.7,3.75866443 L11.7,3.75866443 Z" id="Path"></path>
                                <path d="M14.4,19.8786185 L16.922663,22.3487774 C17.1114427,22.5336212 17.411484,22.5511418 17.6213521,22.3895766 C20.7193131,20.0056641 22.1140547,16.6456696 21.4290757,13.5 C19.52428,16.0470393 17.1381029,18.2124041 14.4,19.8786185 L14.4,19.8786185 Z" id="Path"></path>
                                <path d="M24.1472175,0.157130763 C24.0445134,0.0495063795 23.899758,-0.00763372958 23.7512329,0.000821499424 C9.45306126,0.747458749 4.58140816,13.237611 4.53347318,13.3637005 C4.46130274,13.5552526 4.50798088,13.7713167 4.6527896,13.9159932 L10.3841462,19.6473329 C10.481836,19.7450519 10.614341,19.7999975 10.7525161,19.7999975 C10.816287,19.8001967 10.8795392,19.7885358 10.9390457,19.7656069 C11.0651356,19.717151 23.4901956,14.7845517 24.299359,0.551551139 C24.3066562,0.40448614 24.2513858,0.261199952 24.1472175,0.157130763 Z M13.8787106,12.5055626 C12.7276776,12.5055626 11.7945809,11.5724687 11.7945809,10.4214391 C11.7945809,9.27040945 12.7276776,8.33731557 13.8787106,8.33731557 C15.0297436,8.33731557 15.9628403,9.27040945 15.9628403,10.4214391 C15.9628403,11.5724687 15.0297436,12.5055626 13.8787106,12.5055626 Z" id="Shape"></path>
                                <path d="M6.22762481,18.8505569 C4.92905931,17.716481 2.82663925,17.716481 1.52807376,18.8505569 L1.52807376,18.8505569 C0.333526076,19.8955624 0.0328124043,23.3878001 0.00124577575,23.7828277 C-0.00904166739,23.9169051 0.0447310799,24.0487032 0.149724666,24.1467523 C0.254718252,24.2448014 0.401508523,24.3003008 0.555046277,24.3 L0.59215091,24.3 C1.04349832,24.2728558 5.03363093,24.0091809 6.22762481,22.9646601 C7.52412506,21.82802 7.52412506,19.987197 6.22762481,18.8505569 L6.22762481,18.8505569 Z" id="Path"></path>
                            </g>
                        </g>
                    </g>
                </g>
            </g>
        </g>
    </g>
</svg>