<?xml version="1.0" encoding="UTF-8"?>
<svg width="32px" height="27px" viewBox="0 0 32 27" version="1.1" xmlns="http://www.w3.org/2000/svg" xmlns:xlink="http://www.w3.org/1999/xlink">
    <title>9F482485-6912-45F0-AFC2-0E82DC68CA85</title>
    <g id="Split" stroke="none" stroke-width="1" fill="none" fill-rule="evenodd">
        <g id="Landing-3" transform="translate(-363.000000, -1771.000000)" fill="#5454D4" fill-rule="nonzero">
            <g id="Features" transform="translate(221.400000, 807.300000)">
                <g id="List" transform="translate(45.900000, 945.000000)">
                    <g id="Icon" transform="translate(80.100000, 0.000000)">
                        <g id="sidebar" transform="translate(16.200000, 18.900000)">
                            <path d="M16.2,25.2 L1.944,25.2 C0.870358446,25.2 0,24.3092823 0,23.2105263 L0,1.98947368 C0,0.890717708 0.870358446,0 1.944,0 L16.2,0 L16.2,1.32631579 L1.944,1.32631579 C1.58611948,1.32631579 1.296,1.62322169 1.296,1.98947368 L1.296,23.2105263 C1.296,23.5767783 1.58611948,23.8736842 1.944,23.8736842 L16.2,23.8736842 L16.2,25.2 Z" id="Path"></path>
                            <path d="M28.6105263,0 L18,0 L18,25.2 L28.6105263,25.2 C29.7092823,25.2 30.6,24.3092823 30.6,23.2105263 L30.6,1.98947368 C30.6,0.890717708 29.7092823,0 28.6105263,0 Z M26.6210526,18.5684211 L21.9789474,18.5684211 C21.6126954,18.5684211 21.3157895,18.2715151 21.3157895,17.9052632 C21.3157895,17.5390112 21.6126954,17.2421053 21.9789474,17.2421053 L26.6210526,17.2421053 C26.9873046,17.2421053 27.2842105,17.5390112 27.2842105,17.9052632 C27.2842105,18.2715151 26.9873046,18.5684211 26.6210526,18.5684211 Z M26.6210526,13.2631579 L21.9789474,13.2631579 C21.6126954,13.2631579 21.3157895,12.966252 21.3157895,12.6 C21.3157895,12.233748 21.6126954,11.9368421 21.9789474,11.9368421 L26.6210526,11.9368421 C26.9873046,11.9368421 27.2842105,12.233748 27.2842105,12.6 C27.2842105,12.966252 26.9873046,13.2631579 26.6210526,13.2631579 Z M26.6210526,7.95789474 L21.9789474,7.95789474 C21.6126954,7.95789474 21.3157895,7.66098883 21.3157895,7.29473684 C21.3157895,6.92848485 21.6126954,6.63157895 21.9789474,6.63157895 L26.6210526,6.63157895 C26.9873046,6.63157895 27.2842105,6.92848485 27.2842105,7.29473684 C27.2842105,7.66098883 26.9873046,7.95789474 26.6210526,7.95789474 Z" id="Shape"></path>
                        </g>
                    </g>
                </g>
            </g>
        </g>
    </g>
</svg>