<?xml version="1.0" encoding="UTF-8"?>
<svg width="28px" height="26px" viewBox="0 0 28 26" version="1.1" xmlns="http://www.w3.org/2000/svg" xmlns:xlink="http://www.w3.org/1999/xlink">
    <title>94D6B815-B8BF-4F79-AFCE-2BF8CB1E8ECB</title>
    <g id="Split" stroke="none" stroke-width="1" fill="none" fill-rule="evenodd">
        <g id="Landing-3" transform="translate(-365.000000, -2025.000000)" fill="#F04037" fill-rule="nonzero">
            <g id="Features" transform="translate(221.400000, 807.300000)">
                <g id="List" transform="translate(45.900000, 945.000000)">
                    <g id="1-copy-6" transform="translate(0.000000, 253.800000)">
                        <g id="Icon" transform="translate(80.100000, 0.000000)">
                            <g id="chat-content" transform="translate(18.000000, 18.900000)">
                                <path d="M24.0652174,0 L2.93478261,0 C1.31394693,0 0,1.34313075 0,2.9999665 L0,16.1998191 C0,16.9954597 0.309199423,17.7585129 0.859577925,18.3211158 C1.40995643,18.8837186 2.15642987,19.1997856 2.93478261,19.1997856 L8.5226087,19.1997856 L13.0421739,24.9747211 C13.1535597,25.1171071 13.3222359,25.2 13.500587,25.2 C13.678938,25.2 13.8476142,25.1171071 13.959,24.9747211 L18.4773913,19.1997856 L24.0652174,19.1997856 C25.6860531,19.1997856 27,17.8566549 27,16.1998191 L27,2.9999665 C27,1.34313075 25.6860531,0 24.0652174,0 Z M14.7375,12.6 L6.8625,12.6 C6.55183983,12.6 6.3,12.3985281 6.3,12.15 C6.3,11.9014719 6.55183983,11.7 6.8625,11.7 L14.7375,11.7 C15.0481602,11.7 15.3,11.9014719 15.3,12.15 C15.3,12.3985281 15.0481602,12.6 14.7375,12.6 Z M21.0115385,7.2 L6.88846154,7.2 C6.5634632,7.2 6.3,6.99852814 6.3,6.75 C6.3,6.50147186 6.5634632,6.3 6.88846154,6.3 L21.0115385,6.3 C21.3365368,6.3 21.6,6.50147186 21.6,6.75 C21.6,6.99852814 21.3365368,7.2 21.0115385,7.2 Z" id="Shape"></path>
                            </g>
                        </g>
                    </g>
                </g>
            </g>
        </g>
    </g>
</svg>