<?xml version="1.0" encoding="UTF-8"?>
<svg width="23px" height="27px" viewBox="0 0 23 27" version="1.1" xmlns="http://www.w3.org/2000/svg" xmlns:xlink="http://www.w3.org/1999/xlink">
    <title>A17C4163-5F4C-4367-85A5-53C6C1BAA6C7</title>
    <g id="Split" stroke="none" stroke-width="1" fill="none" fill-rule="evenodd">
        <g id="Landing-3" transform="translate(-710.000000, -1771.000000)" fill="#F04037" fill-rule="nonzero">
            <g id="Features" transform="translate(221.400000, 807.300000)">
                <g id="List" transform="translate(45.900000, 945.000000)">
                    <g id="1-copy-2" transform="translate(342.000000, 0.000000)">
                        <g id="Icon" transform="translate(80.100000, 0.000000)">
                            <g id="layout-11" transform="translate(20.700000, 18.900000)">
                                <path d="M8.47058824,14.4 L0.529411765,14.4 C0.237176471,14.4 0,14.1518769 0,13.8461538 L0,0.553846154 C0,0.248123077 0.237176471,0 0.529411765,0 L8.47058824,0 C8.76282353,0 9,0.248123077 9,0.553846154 L9,13.8461538 C9,14.1518769 8.76282353,14.4 8.47058824,14.4 Z" id="Path"></path>
                                <path d="M8.47058824,25.2 L0.529411765,25.2 C0.237176471,25.2 0,24.9408 0,24.6214286 L0,17.6785714 C0,17.3592 0.237176471,17.1 0.529411765,17.1 L8.47058824,17.1 C8.76282353,17.1 9,17.3592 9,17.6785714 L9,24.6214286 C9,24.9408 8.76282353,25.2 8.47058824,25.2 Z" id="Path"></path>
                                <path d="M21.0705882,8.1 L13.1294118,8.1 C12.8371765,8.1 12.6,7.8408 12.6,7.52142857 L12.6,0.578571429 C12.6,0.2592 12.8371765,0 13.1294118,0 L21.0705882,0 C21.3628235,0 21.6,0.2592 21.6,0.578571429 L21.6,7.52142857 C21.6,7.8408 21.3628235,8.1 21.0705882,8.1 Z" id="Path"></path>
                                <path d="M21.0705882,25.2 L13.1294118,25.2 C12.8371765,25.2 12.6,24.9518769 12.6,24.6461538 L12.6,11.3538462 C12.6,11.0481231 12.8371765,10.8 13.1294118,10.8 L21.0705882,10.8 C21.3628235,10.8 21.6,11.0481231 21.6,11.3538462 L21.6,24.6461538 C21.6,24.9518769 21.3628235,25.2 21.0705882,25.2 Z" id="Path"></path>
                            </g>
                        </g>
                    </g>
                </g>
            </g>
        </g>
    </g>
</svg>